<svg xmlns="http://www.w3.org/2000/svg" version="1.1" xmlns:xlink="http://www.w3.org/1999/xlink" xmlns:svgjs="http://svgjs.dev/svgjs" width="1440" height="2560" preserveAspectRatio="none" viewBox="0 0 1440 2560"><g mask="url(&quot;#SvgjsMask1009&quot;)" fill="none"><rect width="1440" height="2560" x="0" y="0" fill="rgba(255, 255, 255, 1)"></rect><path d="M1440 0L1274.1 0L1440 84.1z" fill="rgba(255, 255, 255, .1)"></path><path d="M1274.1 0L1440 84.1L1440 532.43L996.3399999999999 0z" fill="rgba(255, 255, 255, .075)"></path><path d="M996.34 0L1440 532.43L1440 1611.33L422.52 0z" fill="rgba(255, 255, 255, .05)"></path><path d="M422.52 0L1440 1611.33L1440 2269.42L254.46999999999997 0z" fill="rgba(255, 255, 255, .025)"></path><path d="M0 2560L529.92 2560L0 1506.25z" fill="rgba(0, 0, 0, .1)"></path><path d="M0 1506.25L529.92 2560L598.77 2560L0 1205.77z" fill="rgba(0, 0, 0, .075)"></path><path d="M0 1205.77L598.77 2560L690.71 2560L0 540.06z" fill="rgba(0, 0, 0, .05)"></path><path d="M0 540.06L690.71 2560L1111.8700000000001 2560L0 396.80999999999995z" fill="rgba(0, 0, 0, .025)"></path></g><defs><mask id="SvgjsMask1009"><rect width="1440" height="2560" fill="#ffffff"></rect></mask></defs></svg>