<svg xmlns="http://www.w3.org/2000/svg" version="1.1" xmlns:xlink="http://www.w3.org/1999/xlink" xmlns:svgjs="http://svgjs.dev/svgjs" width="1440" height="2560" preserveAspectRatio="none" viewBox="0 0 1440 2560"><g mask="url(&quot;#SvgjsMask1013&quot;)" fill="none"><rect width="1440" height="2560" x="0" y="0" fill="rgba(18, 84, 135, 1)"></rect><path d="M1440 0L1172.81 0L1440 1150.71z" fill="rgba(255, 255, 255, .1)"></path><path d="M1172.81 0L1440 1150.71L1440 1160.26L1154.9299999999998 0z" fill="rgba(255, 255, 255, .075)"></path><path d="M1154.93 0L1440 1160.26L1440 2010.24L603.2600000000001 0z" fill="rgba(255, 255, 255, .05)"></path><path d="M603.26 0L1440 2010.24L1440 2127.76L241.69 0z" fill="rgba(255, 255, 255, .025)"></path><path d="M0 2560L444.4 2560L0 2183.74z" fill="rgba(0, 0, 0, .1)"></path><path d="M0 2183.74L444.4 2560L687.99 2560L0 1389.9899999999998z" fill="rgba(0, 0, 0, .075)"></path><path d="M0 1389.99L687.99 2560L903.69 2560L0 1350.39z" fill="rgba(0, 0, 0, .05)"></path><path d="M0 1350.39L903.69 2560L1286.44 2560L0 1273.5700000000002z" fill="rgba(0, 0, 0, .025)"></path></g><defs><mask id="SvgjsMask1013"><rect width="1440" height="2560" fill="#ffffff"></rect></mask></defs></svg>